<svg width="40" height="36" viewBox="0 0 40 36" fill="none" xmlns="http://www.w3.org/2000/svg">
<path d="M5.45257 34.5476C5.45257 34.5476 5.40557 35.4407 6.29864 35.4407C7.37972 35.4407 16.3574 35.4407 16.3574 35.4407V27.168C16.3574 27.168 16.2164 25.8049 17.5325 25.8049H21.7158C23.2669 25.8049 23.1729 27.168 23.1729 27.168V35.3937C23.1729 35.3937 31.6805 35.3937 33.0436 35.3937C34.1717 35.3937 34.1247 34.2656 34.1247 34.2656V19.0364L20.2117 6.6745L5.45257 19.0364V34.5476Z" fill="white"/>
<path d="M0 17.9083C0 17.9083 1.2691 20.2115 3.9953 17.9083L20.3055 4.08931L35.6287 17.8143C38.7779 20.1175 40 17.8143 40 17.8143L20.3055 0L0 17.9083Z" fill="white"/>
<path d="M35.253 4.0423H31.3047L31.3517 8.83666L35.253 12.1739V4.0423Z" fill="white"/>
</svg>
