<svg width="28" height="27" viewBox="0 0 28 27" fill="none" xmlns="http://www.w3.org/2000/svg">
<path d="M0.420359 9.85701L8.13701 8.75055C8.98102 8.63093 9.70446 8.12256 10.0963 7.37495L13.5628 0.556737C13.6834 0.317502 13.9245 0.287598 14.0149 0.287598C14.1054 0.287598 14.3465 0.317502 14.4671 0.556737L17.8733 7.37495C18.2651 8.12256 18.9886 8.63093 19.8326 8.75055L27.5492 9.85701C27.8205 9.88692 27.9109 10.0962 27.9411 10.186C27.9712 10.2757 28.0014 10.4551 27.8205 10.6345L22.244 15.9276C21.611 16.5257 21.3397 17.363 21.4904 18.2003L22.8167 25.6765C22.8469 25.9157 22.7263 26.0353 22.6359 26.0951C22.5455 26.1549 22.3646 26.2745 22.0933 26.125L15.1905 22.5963C14.4369 22.2075 13.5326 22.2075 12.7791 22.5963L5.87627 26.125C5.63513 26.2446 5.42413 26.125 5.3337 26.0951C5.24327 26.0353 5.1227 25.8858 5.15284 25.6765L6.47914 18.2003C6.62985 17.363 6.35856 16.5257 5.72556 15.9276L0.149071 10.6345C-0.0317879 10.4551 -0.00164413 10.2757 0.0284996 10.186C0.0586433 10.0962 0.149071 9.88692 0.420359 9.85701Z" fill="white"/>
</svg>
